<?xml version="1.0" encoding="UTF-8"?>
<svg width="32px" height="32px" viewBox="0 0 32 32" version="1.1" xmlns="http://www.w3.org/2000/svg" xmlns:xlink="http://www.w3.org/1999/xlink">
    <title>book.fill@1x</title>
    <g id="Page-1" stroke="none" stroke-width="1" fill="none" fill-rule="evenodd">
        <g id="book.fill" fill-rule="nonzero">
            <rect id="Rectangle" fill="#000000" opacity="0" x="0" y="0" width="32" height="32"></rect>
            <path d="M10.6740173,8 C8.85082457,8 6.95303852,8.88985628 6.09944765,10.4340186 C6.00828726,10.608498 6,10.7219171 6,11.0447008 L6,23.3543791 C6,23.75567 6.24033068,24 6.65469389,24 C6.85358918,24 7.04419688,23.9388952 7.19336665,23.7905998 C8.23756353,22.8483881 9.62153788,22.3598173 11.0055122,22.3598173 C12.2983282,22.3598173 13.4999774,22.8396333 14.378431,23.6335496 C14.4695894,23.7120747 14.5773042,23.75567 14.6684456,23.75567 C14.8508133,23.75567 15,23.6161294 15,23.3893089 L15,10.4863597 C15,10.2595393 14.9833671,10.2071892 14.8259488,9.97164074 C14.0137891,8.7415466 12.4226335,8 10.6740173,8 Z M21.3259472,8 C19.5773568,8 17.9861863,8.7415466 17.173968,9.97164074 C17.0165482,10.2071892 17,10.2595393 17,10.4863597 L17,23.3893089 C17,23.6161294 17.1491033,23.75567 17.3314726,23.75567 C17.4226149,23.75567 17.5386218,23.7120747 17.6215324,23.6335496 C18.4999434,22.8396333 19.7016803,22.3598173 20.9944745,22.3598173 C22.3784959,22.3598173 23.7624323,22.8483881 24.8066645,23.7905998 C24.9558527,23.9388952 25.1464537,24 25.3453712,24 C25.7596696,24 26,23.75567 26,23.3543791 L26,11.0447008 C26,10.7219171 25.9917683,10.5997789 25.9005412,10.4340186 C25.0469949,8.88985628 23.1492164,8 21.3259472,8 Z" id="Shape" fill-opacity="0.85" fill="#FFFFFF"></path>
        </g>
    </g>
</svg>