<?xml version="1.0" encoding="UTF-8"?>
<svg width="32px" height="32px" viewBox="0 0 32 32" version="1.1" xmlns="http://www.w3.org/2000/svg" xmlns:xlink="http://www.w3.org/1999/xlink">
    <title>book_dark@1x</title>
    <g id="Page-1" stroke="none" stroke-width="1" fill="none" fill-rule="evenodd">
        <g id="book_dark" fill-rule="nonzero">
            <path d="M9.60882071,6 C7.42098949,6 5.14364622,7.06782754 4.11933717,8.92082232 C4.00994472,9.13019754 4,9.26630054 4,9.65364094 L4,24.4252549 C4,24.9068039 4.28839681,25.2 4.78563266,25.2 C5.02430701,25.2 5.25303625,25.1266742 5.43203998,24.9487197 C6.68507623,23.8180657 8.34584546,23.2317808 10.0066147,23.2317808 C11.5579939,23.2317808 12.9999728,23.8075599 14.0541172,24.7602595 C14.1635072,24.8544896 14.2927651,24.9068039 14.4021347,24.9068039 C14.6209759,24.9068039 14.8,24.7393552 14.8,24.4671707 L14.8,8.98363167 C14.8,8.71144711 14.7800405,8.64862704 14.5911386,8.36596889 C13.6165469,6.88985593 11.7071602,6 9.60882071,6 Z M22.3911366,6 C20.2928282,6 18.3834235,6.88985593 17.4087616,8.36596889 C17.2198578,8.64862704 17.2,8.71144711 17.2,8.98363167 L17.2,24.4671707 C17.2,24.7393552 17.3789239,24.9068039 17.5977672,24.9068039 C17.7071379,24.9068039 17.8463462,24.8544896 17.9458389,24.7602595 C18.9999321,23.8075599 20.4420163,23.2317808 21.9933694,23.2317808 C23.654195,23.2317808 25.3149188,23.8180657 26.5679974,24.9487197 C26.7470232,25.1266742 26.9757444,25.2 27.2144455,25.2 C27.7116035,25.2 28,24.9068039 28,24.4252549 L28,9.65364094 C28,9.26630054 27.990122,9.11973468 27.8806495,8.92082232 C26.8563939,7.06782754 24.5790597,6 22.3911366,6 Z" id="Shape" fill-opacity="0.85" fill="#FFFFFF"></path>
            <rect id="Rectangle" fill="#000000" opacity="0" x="0" y="0" width="32" height="32"></rect>
        </g>
    </g>
</svg>