<?xml version="1.0" encoding="UTF-8"?>
<svg width="32px" height="32px" viewBox="0 0 32 32" version="1.1" xmlns="http://www.w3.org/2000/svg" xmlns:xlink="http://www.w3.org/1999/xlink">
    <title>code_dark</title>
    <g id="Page-1" stroke="none" stroke-width="1" fill="none" fill-rule="evenodd">
        <g id="code_dark" fill-rule="nonzero">
            <rect id="Rectangle" fill="#000000" opacity="0" x="0" y="0" width="32" height="32"></rect>
            <path d="M4,16.0683688 C4,16.6347688 4.322266,17.0351688 4.996094,17.1425688 C6.20703,17.3281688 6.68555,17.9433688 6.68555,19.5156688 L6.68555,22.2597688 C6.68555,24.9159688 7.89648,26.1659688 10.5332,26.1659688 C10.68945,26.1659688 10.85547,26.1366688 10.97266,26.0976688 C11.27539,25.9706688 11.44141,25.7265688 11.44141,25.4042688 C11.44141,25.0234688 11.27539,24.8281688 10.93359,24.7402688 C10.83594,24.7206688 10.73828,24.7011688 10.62109,24.6913688 C8.98047,24.5742688 8.38477,23.8710688 8.38477,22.0644688 L8.38477,18.8222688 C8.38477,17.1718688 7.51562,16.2538688 5.99219,16.1074688 C5.96289,16.1074688 5.96289,16.0683688 5.99219,16.0683688 C7.51562,15.9218788 8.38477,15.0039088 8.38477,13.3535188 L8.38477,10.1015588 C8.38477,8.2851588 8.98047,7.6015588 10.62109,7.4843788 C10.77734,7.4746088 10.91406,7.4550788 11.01172,7.4160188 C11.29492,7.3183588 11.44141,7.1035188 11.44141,6.7617188 C11.44141,6.4199218 11.26562,6.1855468 10.93359,6.0683594 C10.78711,6.0195313 10.63086,6 10.43555,6 C7.88672,6 6.68555,7.2695288 6.68555,9.9062488 L6.68555,12.6601588 C6.68555,14.2128888 6.20703,14.8378888 4.996094,15.0234388 C4.322266,15.1308588 4,15.5117188 4,16.0683688 Z M11.76367,17.6210688 C12.61328,17.6210688 13.31641,16.8984688 13.31641,16.0683688 C13.31641,15.2480488 12.61328,14.5156288 11.76367,14.5156288 C10.91406,14.5156288 10.20117,15.2480488 10.20117,16.0683688 C10.20117,16.8984688 10.91406,17.6210688 11.76367,17.6210688 Z M16.1582,17.6210688 C16.9883,17.6210688 17.7109,16.8984688 17.7109,16.0683688 C17.7109,15.2480488 16.9883,14.5156288 16.1582,14.5156288 C15.3281,14.5156288 14.6055,15.2480488 14.6055,16.0683688 C14.6055,16.8984688 15.3281,17.6210688 16.1582,17.6210688 Z M20.5527,17.6210688 C21.4023,17.6210688 22.1152,16.8984688 22.1152,16.0683688 C22.1152,15.2480488 21.4023,14.5156288 20.5527,14.5156288 C19.7129,14.5156288 19,15.2480488 19,16.0683688 C19,16.8984688 19.7129,17.6210688 20.5527,17.6210688 Z M28.3164,16.0683688 C28.3164,15.5117188 27.9941,15.1308588 27.3203,15.0234388 C26.1094,14.8378888 25.6309,14.2128888 25.6309,12.6601588 L25.6309,9.9062488 C25.6309,7.2695288 24.4297,6 21.8809,6 C21.6855,6 21.5391,6.0195313 21.3926,6.0683594 C21.0508,6.1855468 20.875,6.4199218 20.875,6.7617188 C20.875,7.1035188 21.0215,7.3183588 21.3145,7.4160188 C21.4121,7.4550788 21.5391,7.4746088 21.6953,7.4843788 C23.3359,7.6015588 23.9414,8.2851588 23.9414,10.1015588 L23.9414,13.3535188 C23.9414,15.0039088 24.8008,15.9218788 26.3242,16.0683688 C26.3535,16.0683688 26.3535,16.1074688 26.3242,16.1074688 C24.8008,16.2538688 23.9414,17.1718688 23.9414,18.8222688 L23.9414,22.0644688 C23.9414,23.8710688 23.3359,24.5742688 21.6953,24.6913688 C21.5781,24.7011688 21.4902,24.7206688 21.3926,24.7402688 C21.041,24.8281688 20.875,25.0234688 20.875,25.4042688 C20.875,25.7265688 21.041,25.9706688 21.3535,26.0976688 C21.4707,26.1366688 21.627,26.1659688 21.7832,26.1659688 C24.4199,26.1659688 25.6309,24.9159688 25.6309,22.2597688 L25.6309,19.5156688 C25.6309,17.9433688 26.1094,17.3281688 27.3203,17.1425688 C27.9941,17.0351688 28.3164,16.6347688 28.3164,16.0683688 Z" id="Shape" fill-opacity="0.85" fill="#FFFFFF"></path>
        </g>
    </g>
</svg>