<?xml version="1.0" encoding="UTF-8"?>
<svg width="32px" height="32px" viewBox="0 0 32 32" version="1.1" xmlns="http://www.w3.org/2000/svg" xmlns:xlink="http://www.w3.org/1999/xlink">
    <title>code_dark</title>
    <g id="Page-1" stroke="none" stroke-width="1" fill="none" fill-rule="evenodd">
        <g id="code_dark" style="mix-blend-mode: normal;">
            <rect id="Rectangle" fill="#000000" fill-rule="nonzero" opacity="0" x="0" y="0" width="32" height="32"></rect>
            <g id="Group-4" opacity="0.78843471" transform="translate(6, 4)">
                <rect id="Rectangle-Copy-6" fill="#E4C8EA" x="2.40970279" y="13.0909091" width="12.0485139" height="2.18181818" rx="1.09090909"></rect>
                <g id="Rectangle-Copy-18">
                    <rect id="Rectangle-Copy-11" fill="#6FA1B0" x="0" y="0" width="13.2533653" height="2.18181818" rx="1.09090909"></rect>
                    <rect id="Rectangle-Copy-7" fill="#AEB7BD" x="15.3618553" y="0" width="3.61455418" height="2.18181818" rx="1.09090909"></rect>
                </g>
                <g id="Rectangle-Copy-15" transform="translate(0, 4.3636)">
                    <rect id="Rectangle-Copy" fill="#E0BF9A" x="10.3611889" y="0" width="5.30187925" height="2.18181818" rx="1.09090909"></rect>
                    <rect id="Rectangle-Copy-13" fill="#6FA1B0" x="0" y="17.4545455" width="5.30187925" height="2.18181818" rx="1.09090909"></rect>
                    <rect id="Rectangle-Copy-4" fill="#E0BF9A" x="11.5660403" y="13.0909091" width="8.43395975" height="2.18181818" rx="1.09090909"></rect>
                    <rect id="Rectangle-Copy-9" fill="#E4C8EA" x="0" y="0" width="8.83646541" height="2.18181818" rx="1.09090909"></rect>
                    <rect id="Rectangle-Copy-17" fill="#E0A284" x="7.22910836" y="17.4545455" width="8.83646541" height="2.18181818" rx="1.09090909"></rect>
                </g>
                <g id="Rectangle-Copy-16" transform="translate(2.4097, 8.7273)">
                    <rect id="Rectangle-Copy-14" fill="#E0A284" x="0" y="0" width="4.51819272" height="2.18181818" rx="1.09090909"></rect>
                    <rect id="Rectangle-Copy-8" fill="#AEB7BD" x="6.02425696" y="2.84217094e-14" width="9.63881114" height="2.18181818" rx="1.09090909"></rect>
                </g>
                <rect id="Rectangle-Copy-5" fill="#AEB7BD" x="0" y="17.4545455" width="9.63881114" height="2.18181818" rx="1.09090909"></rect>
            </g>
        </g>
    </g>
</svg>