<?xml version="1.0" encoding="UTF-8"?>
<svg width="32px" height="32px" viewBox="0 0 32 32" version="1.1" xmlns="http://www.w3.org/2000/svg" xmlns:xlink="http://www.w3.org/1999/xlink">
    <title>database_dark</title>
    <g id="Page-1" stroke="none" stroke-width="1" fill="none" fill-rule="evenodd" opacity="0.803013393">
        <g id="database_dark" fill-rule="nonzero">
            <rect id="Rectangle" fill="#000000" opacity="0" x="0" y="0" width="32" height="32"></rect>
            <g id="Group-11" transform="translate(3.500000, 3.000000)">
                <path d="M12.5061089,15.4890001 C12.9951629,15.4890001 13.4718613,15.3300172 14.058721,14.9877658 L23.6186013,9.43765992 C24.6088019,8.86308066 24.987732,8.41075551 24.987732,7.73838298 C24.987732,7.07824087 24.6088019,6.62591572 23.6186013,6.05134898 L14.058721,0.501223042 C13.4718613,0.158924074 12.9951629,0 12.5061089,0 C12.0048872,0 11.5403441,0.158924074 10.9413165,0.501223042 L1.38142379,6.05134898 C0.391198105,6.62591572 0.0122249345,7.07824087 0.0122249345,7.73838298 C0.0122249345,8.41075551 0.391198105,8.86308066 1.38142379,9.43765992 L10.9413165,14.9877658 C11.5403441,15.3300172 12.0048872,15.4890001 12.5061089,15.4890001 Z M12.5061089,13.3618839 C12.3227403,13.3618839 12.16382,13.3007944 11.9559905,13.1907582 L2.65281137,7.86063708 C2.60391474,7.83618877 2.567236,7.79951003 2.567236,7.73838298 C2.567236,7.68948635 2.60391474,7.65280761 2.65281137,7.6283593 L11.9559905,2.29828824 C12.16382,2.18826456 12.3227403,2.12713751 12.5061089,2.12713751 C12.6773223,2.12713751 12.83618,2.18826456 13.0439844,2.29828824 L22.3472387,7.6283593 C22.4083282,7.65280761 22.432739,7.68948635 22.432739,7.73838298 C22.432739,7.79951003 22.4083282,7.83618877 22.3472387,7.86063708 L13.0439844,13.1907582 C12.83618,13.3007944 12.6773223,13.3618839 12.5061089,13.3618839 Z" id="Shape" fill="#90CBBD"></path>
                <path d="M12.5061089,26.1730097 C12.9462162,26.1730097 13.3251463,25.9652053 13.8386486,25.6596326 L24.339908,19.4615524 C24.7799276,19.2048013 25,18.7769244 25,18.3979943 C25,17.89676 24.6332127,17.4932939 24.2909613,17.3221682 L12.970627,23.8747678 C12.7872333,23.972536 12.6406435,24.0458935 12.5061089,24.0458935 C12.359419,24.0458935 12.2127166,23.972536 12.029348,23.8747678 L0.709046253,17.3221682 C0.366748537,17.4932939 0,17.89676 0,18.3979943 C0,18.7769244 0.220048621,19.2048013 0.672371274,19.4615524 L11.1613764,25.6596326 C11.6870465,25.9652053 12.0537963,26.1730097 12.5061089,26.1730097 Z" id="Path" fill="#425F58"></path>
                <path d="M12.5061089,20.9491689 C12.9462162,20.9491689 13.3251463,20.7412393 13.8386486,20.4356666 L24.339908,14.2375864 C24.7921956,13.9564245 25,13.5530836 25,13.1740283 C25,12.672794 24.6332127,12.2571851 24.2909613,12.0982022 L12.970627,18.6385338 C12.7872333,18.7364272 12.6406435,18.8097847 12.5061089,18.8097847 C12.359419,18.8097847 12.2127166,18.7364272 12.029348,18.6385338 L0.709046253,12.0982022 C0.366748537,12.2571851 0,12.672794 0,13.1740283 C0,13.5530836 0.220048621,13.9686925 0.672371274,14.2375864 L11.1613764,20.4356666 C11.6870465,20.7412393 12.0537963,20.9491689 12.5061089,20.9491689 Z" id="Path" fill="#6B9C90"></path>
            </g>
        </g>
    </g>
</svg>