<?xml version="1.0" encoding="UTF-8"?>
<svg width="32px" height="32px" viewBox="0 0 32 32" version="1.1" xmlns="http://www.w3.org/2000/svg" xmlns:xlink="http://www.w3.org/1999/xlink">
    <title>database_dark</title>
    <g id="Page-1" stroke="none" stroke-width="1" fill="none" fill-rule="evenodd">
        <g id="database_dark" fill-rule="nonzero">
            <rect id="Rectangle" fill="#000000" opacity="0" x="0" y="0" width="32" height="32"></rect>
            <path d="M15.9907187,17.612167 C16.420513,17.612167 16.8394489,17.4724484 17.3551977,17.1716683 L25.7566881,12.2940798 C26.6269042,11.7891235 26.9599186,11.3916074 26.9599186,10.8007076 C26.9599186,10.2205563 26.6269042,9.82304026 25.7566881,9.31809492 L17.3551977,4.44048884 C16.8394489,4.13966693 16.420513,4 15.9907187,4 C15.550231,4 15.1419775,4.13966693 14.6155353,4.44048884 L6.2140339,9.31809492 C5.34379585,9.82304026 5.01074361,10.2205563 5.01074361,10.8007076 C5.01074361,11.3916074 5.34379585,11.7891235 6.2140339,12.2940798 L14.6155353,17.1716683 C15.1419775,17.4724484 15.550231,17.612167 15.9907187,17.612167 Z M15.9907187,15.7427977 C15.8295692,15.7427977 15.6899056,15.6891106 15.5072592,15.5924077 L7.33136491,10.908148 C7.28839318,10.8866621 7.25615888,10.8544278 7.25615888,10.8007076 C7.25615888,10.7577359 7.28839318,10.7255016 7.33136491,10.7040157 L15.5072592,6.01980006 C15.6899056,5.92310816 15.8295692,5.869388 15.9907187,5.869388 C16.1411858,5.869388 16.2807944,5.92310816 16.4634188,6.01980006 L24.6393791,10.7040157 C24.6930663,10.7255016 24.7145191,10.7577359 24.7145191,10.8007076 C24.7145191,10.8544278 24.6930663,10.8866621 24.6393791,10.908148 L16.4634188,15.5924077 C16.2807944,15.6891106 16.1411858,15.7427977 15.9907187,15.7427977 Z M15.9907187,22.9088234 C16.3774973,22.9088234 16.7105117,22.726089 17.1617919,22.4575432 L26.3905926,17.0104968 C26.7880756,16.7634038 26.9707,16.4089365 26.9707,16.0758121 C26.9707,15.6353134 26.648357,15.2700647 26.3475769,15.130346 L16.3989502,20.8781726 C16.2377787,20.964204 16.1089515,21.0286726 15.9907187,21.0286726 C15.8618035,21.0286726 15.7328773,20.964204 15.5717278,20.8781726 L5.6231297,15.130346 C5.32230888,15.2700647 5,15.6353134 5,16.0758121 C5,16.4089365 5.19338489,16.7741853 5.5908987,17.0104968 L14.8089301,22.4575432 C15.2709037,22.726089 15.5932137,22.9088234 15.9907187,22.9088234 Z M15.9907187,27.8507924 C16.3774973,27.8507924 16.7105117,27.6681681 17.1617919,27.3996223 L26.3905926,21.9525758 C26.7772942,21.7269358 26.9707,21.3509056 26.9707,21.0178912 C26.9707,20.5773925 26.648357,20.2228152 26.3475769,20.0724251 L16.3989502,25.8310331 C16.2377787,25.9169545 16.1089515,25.9814231 15.9907187,25.9814231 C15.8618035,25.9814231 15.7328773,25.9169545 15.5717278,25.8310331 L5.6231297,20.0724251 C5.32230888,20.2228152 5,20.5773925 5,21.0178912 C5,21.3509056 5.19338489,21.7269358 5.5908987,21.9525758 L14.8089301,27.3996223 C15.2709037,27.6681681 15.5932137,27.8507924 15.9907187,27.8507924 Z" id="Shape" fill-opacity="0.85" fill="#FFFFFF"></path>
        </g>
    </g>
</svg>