<?xml version="1.0" encoding="UTF-8"?>
<svg width="32px" height="32px" viewBox="0 0 32 32" version="1.1" xmlns="http://www.w3.org/2000/svg" xmlns:xlink="http://www.w3.org/1999/xlink">
    <title>database_dark</title>
    <g id="Page-1" stroke="none" stroke-width="1" fill="none" fill-rule="evenodd" opacity="0.803013393">
        <g id="database_dark" fill-rule="nonzero">
            <rect id="Rectangle" fill="#000000" opacity="0" x="0" y="0" width="32" height="32"></rect>
            <g id="Group-11" transform="translate(3, 3)">
                <path d="M13.0063533,15.3866142 C13.5149694,15.3866142 14.0107357,15.2286822 14.6210699,14.8886932 L24.5633453,9.37527479 C25.593154,8.80449364 25.9872413,8.35515845 25.9872413,7.68723047 C25.9872413,7.03145205 25.593154,6.58211687 24.5633453,6.01134815 L14.6210699,0.497909841 C14.0107357,0.157873549 13.5149694,0 13.0063533,0 C12.4850826,0 12.0019579,0.157873549 11.3789692,0.497909841 L1.43668074,6.01134815 C0.406846029,6.58211687 0.0127139319,7.03145205 0.0127139319,7.68723047 C0.0127139319,8.35515845 0.406846029,8.80449364 1.43668074,9.37527479 L11.3789692,14.8886932 C12.0019579,15.2286822 12.4850826,15.3866142 13.0063533,15.3866142 Z M13.0063533,13.2735587 C12.8156499,13.2735587 12.6503728,13.2128731 12.4342301,13.1035642 L2.75892382,7.80867644 C2.70807132,7.78438973 2.66992544,7.74795345 2.66992544,7.68723047 C2.66992544,7.63865705 2.70807132,7.60222077 2.75892382,7.57793406 L12.4342301,2.28309602 C12.6503728,2.17379962 12.8156499,2.11307663 13.0063533,2.11307663 C13.1844152,2.11307663 13.3496272,2.17379962 13.5657438,2.28309602 L23.2411283,7.57793406 C23.3046613,7.60222077 23.3300485,7.63865705 23.3300485,7.68723047 C23.3300485,7.74795345 23.3046613,7.78438973 23.2411283,7.80867644 L13.5657438,13.1035642 C13.3496272,13.2128731 13.1844152,13.2735587 13.0063533,13.2735587 Z" id="Shape" fill="#90CBBD"></path>
                <path d="M13.0063533,26 C13.4640649,26 13.8581522,25.7935692 14.3921946,25.4900164 L25.3135043,19.332907 C25.7711247,19.0778531 26,18.6528046 26,18.2763793 C26,17.7784582 25.6185412,17.3776592 25.2625997,17.2076646 L13.489452,23.71695 C13.2987226,23.8140719 13.1462693,23.8869445 13.0063533,23.8869445 C12.8537958,23.8869445 12.7012253,23.8140719 12.5105219,23.71695 L0.737408103,17.2076646 C0.381418478,17.3776592 0,17.7784582 0,18.2763793 C0,18.6528046 0.228850566,19.0778531 0.699266125,19.332907 L11.6078315,25.4900164 C12.1545284,25.7935692 12.5359482,26 13.0063533,26 Z" id="Path" fill="#425F58"></path>
                <path d="M13.0063533,20.81069 C13.4640649,20.81069 13.8581522,20.6041348 14.3921946,20.3005821 L25.3135043,14.1434726 C25.7838834,13.8641693 26,13.4634946 26,13.0869449 C26,12.5890239 25.6185412,12.1761623 25.2625997,12.0182303 L13.489452,18.5153287 C13.2987226,18.6125751 13.1462693,18.6854476 13.0063533,18.6854476 C12.8537958,18.6854476 12.7012253,18.6125751 12.5105219,18.5153287 L0.737408103,12.0182303 C0.381418478,12.1761623 0,12.5890239 0,13.0869449 C0,13.4634946 0.228850566,13.8763562 0.699266125,14.1434726 L11.6078315,20.3005821 C12.1545284,20.6041348 12.5359482,20.81069 13.0063533,20.81069 Z" id="Path" fill="#6B9C90"></path>
            </g>
        </g>
    </g>
</svg>