<?xml version="1.0" encoding="UTF-8"?>
<svg width="32px" height="32px" viewBox="0 0 32 32" version="1.1" xmlns="http://www.w3.org/2000/svg" xmlns:xlink="http://www.w3.org/1999/xlink">
    <title>doc_dark</title>
    <g id="Page-1" stroke="none" stroke-width="1" fill="none" fill-rule="evenodd">
        <g id="doc_dark" fill-rule="nonzero">
            <path d="M11.9296065,10.1893987 C11.5242811,10.1893987 11.2285067,9.87171639 11.2285067,9.47733934 C11.2285067,9.0939331 11.5242811,8.79814751 11.9296065,8.79814751 L20.5071082,8.79814751 C20.9015189,8.79814751 21.1972147,9.0939331 21.1972147,9.47733934 C21.1972147,9.87171639 20.9015189,10.1893987 20.5071082,10.1893987 L11.9296065,10.1893987 Z M11.9296065,14.1330795 C11.5242811,14.1330795 11.2285067,13.8153971 11.2285067,13.4210313 C11.2285067,13.0376138 11.5242811,12.7418395 11.9296065,12.7418395 L20.5071082,12.7418395 C20.9015189,12.7418395 21.1972147,13.0376138 21.1972147,13.4210313 C21.1972147,13.8153971 20.9015189,14.1330795 20.5071082,14.1330795 L11.9296065,14.1330795 Z M11.9296065,18.0767378 C11.5242811,18.0767378 11.2285067,17.7700487 11.2285067,17.3866312 C11.2285067,16.9922205 11.5242811,16.6855314 11.9296065,16.6855314 L15.9828383,16.6855314 C16.3991233,16.6855314 16.6839381,16.9922205 16.6839381,17.3866312 C16.6839381,17.7700487 16.3991233,18.0767378 15.9828383,18.0767378 L11.9296065,18.0767378 Z M7,24.0580725 C7,26.347584 8.12833318,27.4868431 10.3959479,27.4868431 L22.0297848,27.4868431 C24.2974219,27.4868431 25.4258,26.347584 25.4258,24.0580725 L25.4258,7.43977507 C25.4258,5.16120074 24.2974219,4 22.0297848,4 L10.3959479,4 C8.12833318,4 7,5.16120074 7,7.43977507 L7,24.0580725 Z" id="Shape-Copy" fill-opacity="0.85" fill="#FFFFFF"></path>
            <rect id="Rectangle" fill="#000000" opacity="0" x="0" y="0" width="32" height="32"></rect>
        </g>
    </g>
</svg>