<?xml version="1.0" encoding="UTF-8"?>
<svg width="31.4177654px" height="22.8300395px" viewBox="0 0 31.4177654 22.8300395" version="1.1" xmlns="http://www.w3.org/2000/svg" xmlns:xlink="http://www.w3.org/1999/xlink">
    <title>folder_dark_open</title>
    <g id="Page-1" stroke="none" stroke-width="1" fill="none" fill-rule="evenodd">
        <g id="folder_dark_open" style="mix-blend-mode: normal;" transform="translate(-0.290998, -5.000000)">
            <rect id="Rectangle" x="0.695652174" y="0" width="32" height="32"></rect>
            <g id="Group-7" transform="translate(0.000000, 5.000000)" fill="#70A3CC">
                <path d="M10.3043478,0 C12.0262126,-3.16301425e-16 13.5447916,0.870369887 14.4441296,2.19515444 L26.9130435,2.19514585 C28.5698977,2.19514585 29.9130435,3.5382916 29.9130435,5.19514585 L29.9130435,6.3690589 L2.08695652,6.3690589 L2.08695652,2.19514585 L2.19622846,2.19485351 C2.54804631,0.929006388 3.70901088,6.22457411e-16 5.08695652,0 L10.3043478,0 Z" id="Combined-Shape" fill-opacity="0.6"></path>
                <path d="M2.29123666,7.5256917 L29.7087633,7.5256917 C30.8133328,7.5256917 31.7087633,8.4211222 31.7087633,9.5256917 C31.7087633,9.6160781 31.7026361,9.70636054 31.6904237,9.79591811 L30.2668608,20.2353791 C30.0641623,21.7218345 28.7945824,22.8300395 27.2943703,22.8300395 L4.7056297,22.8300395 C3.20541762,22.8300395 1.93583766,21.7218345 1.7331392,20.2353791 L0.309576329,9.79591811 C0.160334404,8.70147733 0.926569472,7.69327329 2.02101026,7.54403136 C2.11056783,7.53181897 2.20085027,7.5256917 2.29123666,7.5256917 Z" id="Rectangle"></path>
            </g>
        </g>
    </g>
</svg>