<?xml version="1.0" encoding="UTF-8"?>
<svg width="32px" height="32px" viewBox="0 0 32 32" version="1.1" xmlns="http://www.w3.org/2000/svg" xmlns:xlink="http://www.w3.org/1999/xlink">
    <title>folder_dark copy</title>
    <g id="Page-1" stroke="none" stroke-width="1" fill="none" fill-rule="evenodd">
        <g id="folder_dark-copy" style="mix-blend-mode: normal;" fill="#70A3CC">
            <rect id="Rectangle" opacity="0" x="0" y="0" width="32" height="32"></rect>
            <path d="M5.04541849,28 C3.25505932,28 2.31071749,28 2,26.2052987 L0.43533533,15.8743665 C0.228578398,14.509223 1.16763627,13.2349459 2.5327798,13.028189 C2.65668575,13.0094229 2.78182736,13 2.90714634,13 L29.0820312,13 C29.2109179,13.0001944 29.3395969,13.0103528 29.4669171,13.030387 C30.8308467,13.2450063 31.7625468,14.5246729 31.5478307,15.8885872 C30.650276,21.6385947 30.1345251,25.0522745 30.000578,26.1296266 C29.7680348,28 29.0047479,28 27.205016,28 L5.04541849,28 Z" id="Combined-Shape"></path>
            <path d="M10.5082189,5.5 C11.427156,5.5 12.2720177,6.00413949 12.7083794,6.81286308 L12.961,7.28 L27,7.28099174 C28.6568542,7.28099174 30,8.62413749 30,10.2809917 L30.0010222,12.0632721 C29.8409045,12.0219699 29.6730179,12 29.5,12 L2.5,12 C2.32718363,12 2.15948665,12.0219187 1.99953742,12.0631279 L2,7.28099174 L2.01193942,7.28020638 C2.12137728,6.27904838 2.96971039,5.5 4,5.5 L10.5082189,5.5 Z" id="Combined-Shape" fill-opacity="0.6"></path>
        </g>
    </g>
</svg>