<?xml version="1.0" encoding="UTF-8"?>
<svg width="48px" height="48px" viewBox="0 0 48 48" version="1.1" xmlns="http://www.w3.org/2000/svg" xmlns:xlink="http://www.w3.org/1999/xlink">
    <title>folder_dark</title>
    <g id="Page-1" stroke="none" stroke-width="1" fill="none" fill-rule="evenodd">
        <g id="folder_dark" style="mix-blend-mode: normal;" fill="#70A3CC">
            <rect id="Rectangle" opacity="0" x="0" y="0" width="48" height="48"></rect>
            <path d="M5,17.0614286 L43,17.0614286 C44.1045695,17.0614286 45,17.9568591 45,19.0614286 L45,39 C45,40.6568542 43.6568542,42 42,42 L6,42 C4.34314575,42 3,40.6568542 3,39 L3,19.0614286 C3,17.9568591 3.8954305,17.0614286 5,17.0614286 Z" id="Rectangle"></path>
            <path d="M16.5845241,8.25 C17.4626812,8.25 18.2764483,8.71074708 18.7282564,9.46376061 L19.603,10.921 L42,10.9214876 C43.6568542,10.9214876 45,12.2646334 45,13.9214876 L45.0006096,16.0005747 C44.6581165,15.7258031 44.2232541,15.5614286 43.75,15.5614286 L4.25,15.5614286 C3.77654604,15.5614286 3.34151624,15.725942 2.99895651,16.0009229 L3,10.25 C3,9.1454305 3.8954305,8.25 5,8.25 L16.5845241,8.25 Z" id="Combined-Shape" fill-opacity="0.6"></path>
        </g>
    </g>
</svg>