<?xml version="1.0" encoding="UTF-8"?>
<svg width="32px" height="32px" viewBox="0 0 32 32" version="1.1" xmlns="http://www.w3.org/2000/svg" xmlns:xlink="http://www.w3.org/1999/xlink">
    <title>folder_dark</title>
    <g id="Page-1" stroke="none" stroke-width="1" fill="none" fill-rule="evenodd">
        <g id="folder_dark" style="mix-blend-mode: normal;" fill="#70A3CC">
            <rect id="Rectangle" opacity="0" x="0" y="0" width="32" height="32"></rect>
            <path d="M4,11.3742857 L28,11.3742857 C29.1045695,11.3742857 30,12.2697162 30,13.3742857 L30,25 C30,26.6568542 28.6568542,28 27,28 L5,28 C3.34314575,28 2,26.6568542 2,25 L2,13.3742857 C2,12.2697162 2.8954305,11.3742857 4,11.3742857 Z" id="Rectangle"></path>
            <path d="M10.5845241,5.5 C11.4626812,5.5 12.2764483,5.96074708 12.7282564,6.71376061 L13.068,7.28 L27,7.28099174 C28.6568542,7.28099174 30,8.62413749 30,10.2809917 L30.000412,11.0518404 C29.6339297,10.6363595 29.0975701,10.3742857 28.5,10.3742857 L3.5,10.3742857 C2.90242987,10.3742857 2.36607035,10.6363595 1.99958804,11.0518404 L2,7.28099174 L2.01193942,7.28020638 C2.12137728,6.27904838 2.96971039,5.5 4,5.5 L10.5845241,5.5 Z" id="Combined-Shape" fill-opacity="0.6"></path>
        </g>
    </g>
</svg>