<?xml version="1.0" encoding="UTF-8"?>
<svg width="44px" height="44px" viewBox="0 0 44 44" version="1.1" xmlns="http://www.w3.org/2000/svg" xmlns:xlink="http://www.w3.org/1999/xlink">
    <title>folder copy 2</title>
    <g id="Page-1" stroke="none" stroke-width="1" fill="none" fill-rule="evenodd">
        <g id="folder-copy-2" style="mix-blend-mode: normal;">
            <rect id="Rectangle" x="0" y="0" width="44" height="44"></rect>
            <g id="Group-7" transform="translate(2.000000, 6.000000)" fill="#5B8CB1">
                <path d="M0,3 C-2.02906125e-16,1.34314575 1.34314575,3.04359188e-16 3,0 L14,0 C16.110038,-3.87607692e-16 17.9148022,1.30703234 18.6488366,3.15564092 L37,3.15552216 C38.6568542,3.15552216 40,4.49866791 40,6.15552216 L40,7.15552216 L0,7.15552216 L0,3 Z" id="Combined-Shape" fill-opacity="0.6"></path>
                <path d="M0,8.81818182 L40,8.81818182 L40,28.8181818 C40,30.4750361 38.6568542,31.8181818 37,31.8181818 L3,31.8181818 C1.34314575,31.8181818 6.46995335e-16,30.4750361 0,28.8181818 L0,8.81818182 L0,8.81818182 Z" id="Rectangle"></path>
            </g>
        </g>
    </g>
</svg>