<?xml version="1.0" encoding="UTF-8"?>
<svg width="48px" height="48px" viewBox="0 0 48 48" version="1.1" xmlns="http://www.w3.org/2000/svg" xmlns:xlink="http://www.w3.org/1999/xlink">
    <title>folder_open_dark</title>
    <g id="Page-1" stroke="none" stroke-width="1" fill="none" fill-rule="evenodd">
        <g id="folder_open_dark" style="mix-blend-mode: normal;" fill="#70A3CC">
            <rect id="Rectangle" opacity="0" x="0" y="0" width="48" height="48"></rect>
            <path d="M7.56812774,42 C4.88258898,42 3.46607624,42 3,39.3079481 L0.43533533,22.3743665 C0.228578398,21.009223 1.16763627,19.7349459 2.5327798,19.528189 C2.65668575,19.5094229 2.78182736,19.5 2.90714634,19.5 L45.0791016,19.5 C45.2081304,19.5000701 45.3369602,19.5101288 45.4644362,19.5300863 C46.8285319,19.7436473 47.7612245,21.0225907 47.5477204,22.3866953 C46.0617243,31.8874716 45.2127732,37.4900531 45.000867,39.19444 C44.6520521,42 43.5071218,42 40.8075239,42 L7.56812774,42 Z" id="Combined-Shape"></path>
            <path d="M16.5082189,8.25 C17.427156,8.25 18.2720177,8.75413949 18.7083794,9.56286308 L19.441,10.921 L42,10.9214876 C43.6568542,10.9214876 45,12.2646334 45,13.9214876 L44.9993061,18 L2.99930613,18 L3,10.25 C3,9.1454305 3.8954305,8.25 5,8.25 L16.5082189,8.25 Z" id="Combined-Shape" fill-opacity="0.6"></path>
        </g>
    </g>
</svg>