<?xml version="1.0" encoding="UTF-8"?>
<svg width="44px" height="44px" viewBox="0 0 44 44" version="1.1" xmlns="http://www.w3.org/2000/svg" xmlns:xlink="http://www.w3.org/1999/xlink">
    <title>folder copy 3</title>
    <g id="Page-1" stroke="none" stroke-width="1" fill="none" fill-rule="evenodd">
        <g id="folder-copy-3" style="mix-blend-mode: normal;">
            <rect id="Rectangle" x="0" y="0" width="44" height="44"></rect>
            <g id="Group-7" transform="translate(0.000000, 6.000000)" fill="#5B8CB1">
                <path d="M2,3 C2,1.34314575 3.34314575,3.04359188e-16 5,0 L16,0 C18.110038,-3.87607692e-16 19.9148022,1.30703234 20.6488366,3.15564092 L39,3.15552216 C40.6568542,3.15552216 42,4.49866791 42,6.15552216 L42,7.15552216 L2,7.15552216 L2,3 Z" id="Combined-Shape" fill-opacity="0.6"></path>
                <path d="M2.18146024,8.81818182 L41.8185398,8.81818182 C42.9231093,8.81818182 43.8185398,9.71361232 43.8185398,10.8181818 C43.8185398,10.8760164 43.8160311,10.9338239 43.8110209,10.9914411 L42.2382705,29.0780707 C42.1034642,30.6283435 40.8056717,31.8181818 39.2495488,31.8181818 L4.75045123,31.8181818 C3.19432828,31.8181818 1.8965358,30.6283435 1.76172947,29.0780707 L0.188979064,10.9914411 C0.0932906317,9.89102408 0.907784039,8.92138907 2.00820101,8.82570064 C2.06581821,8.82069045 2.12362562,8.81818182 2.18146024,8.81818182 Z" id="Rectangle"></path>
            </g>
        </g>
    </g>
</svg>