<?xml version="1.0" encoding="UTF-8"?>
<svg width="32px" height="32px" viewBox="0 0 32 32" version="1.1" xmlns="http://www.w3.org/2000/svg" xmlns:xlink="http://www.w3.org/1999/xlink">
    <title>git_dark</title>
    <g id="Page-1" stroke="none" stroke-width="1" fill="none" fill-rule="evenodd">
        <g id="git_dark">
            <rect id="Rectangle" fill="#000000" fill-rule="nonzero" opacity="0" x="0" y="0" width="32" height="32"></rect>
            <g id="Group-8" transform="translate(16.000000, 16.001089) rotate(-180.000000) translate(-16.000000, -16.001089) translate(5.500000, 3.000000)">
                <path d="M17.3653589,18.7215677 C15.3561058,18.7215677 13.7193903,20.3495783 13.7193903,22.3731597 C13.7193903,24.3742826 15.3561058,26.0021774 17.3653589,26.0021774 C19.3746121,26.0021774 21,24.3742826 21,22.3731597 C21,20.3495783 19.3746121,18.7215677 17.3653589,18.7215677 Z" id="Path" fill="#BE6250" fill-rule="nonzero"></path>
                <polygon id="Rectangle" fill="#78473E" transform="translate(11.941183, 11.983914) rotate(-60.000000) translate(-11.941183, -11.983914) " points="10.8621161 6.26343487 13.0202494 6.26343487 13.0202494 17.7043929 10.8621161 17.7043929"></polygon>
                <path d="M4.45844468,11.2687884 C6.47078646,11.2687884 8.09874951,9.63206734 8.09874951,7.62284467 C8.09874951,5.62490327 6.47078646,3.98817868 4.45844468,3.98817868 C2.4461029,3.98817868 0.818139842,5.62490327 0.818139842,7.62284467 C0.818139842,9.63206734 2.4461029,11.2687884 4.45844468,11.2687884 Z M4.45844468,9.81266642 C3.24059527,9.81266642 2.27426178,8.84925068 2.27426178,7.62188857 C2.27426178,6.39451295 3.24059527,5.44430061 4.45844468,5.44430061 C5.68952392,5.44430061 6.64262758,6.39451295 6.64262758,7.62188857 C6.64262758,8.84925068 5.7027673,9.81266642 4.45844468,9.81266642 Z" id="Shape" fill="#FF6754" fill-rule="nonzero" transform="translate(4.458445, 7.628484) rotate(-15.000000) translate(-4.458445, -7.628484) "></path>
                <polygon id="Rectangle" fill="#BE6250" points="16.2619627 3.33273619 18.420096 3.33273619 18.420096 21.6646955 16.2619627 21.6646955"></polygon>
                <path d="M17.3596952,7.28060967 C19.3720369,7.28060967 21,5.64388866 21,3.63466599 C21,1.63672459 19.3720369,0 17.3596952,0 C15.3473534,0 13.7193903,1.63672459 13.7193903,3.63466599 C13.7193903,5.64388866 15.3473534,7.28060967 17.3596952,7.28060967 Z" id="Path-Copy" fill="#BE6250" fill-rule="nonzero"></path>
            </g>
        </g>
    </g>
</svg>