<?xml version="1.0" encoding="UTF-8"?>
<svg width="32px" height="32px" viewBox="0 0 32 32" version="1.1" xmlns="http://www.w3.org/2000/svg" xmlns:xlink="http://www.w3.org/1999/xlink">
    <title>git_dark</title>
    <g id="Page-1" stroke="none" stroke-width="1" fill="none" fill-rule="evenodd">
        <g id="git_dark" transform="translate(16, 16) scale(1, -1) translate(-16, -16)">
            <rect id="Rectangle" fill="#000000" fill-rule="nonzero" opacity="0" x="0" y="0" width="32" height="32"></rect>
            <g id="Group-8" transform="translate(16.7128, 16.1255) rotate(-180) translate(-16.7128, -16.1255)translate(8, 4)">
                <path d="M14.407234,18.3990975 C12.7387037,18.3990975 11.3795373,19.7076172 11.3795373,21.3340785 C11.3795373,22.9424886 12.7387037,24.2509153 14.407234,24.2509153 C16.0757643,24.2509153 17.425524,22.9424886 17.425524,21.3340785 C17.425524,19.7076172 16.0757643,18.3990975 14.407234,18.3990975 Z" id="Path" fill="#BE6250" fill-rule="nonzero"></path>
                <polygon id="Rectangle" fill="#78473E" transform="translate(9.6663, 12.1446) rotate(-60) translate(-9.6663, -12.1446)" points="8.95637159 7.41657455 10.2765681 7.44151451 10.3762979 16.8726861 9.05610133 16.8477461"></polygon>
                <path d="M3.67726831,11.565334 C5.34836348,11.565334 6.70026167,10.2498133 6.70026167,8.6348929 C6.70026167,7.02903989 5.34836348,5.71351627 3.67726831,5.71351627 C2.00617313,5.71351627 0.654274941,7.02903989 0.654274941,8.6348929 C0.654274941,10.2498133 2.00617313,11.565334 3.67726831,11.565334 Z M3.67726831,10.3949705 C2.66593798,10.3949705 1.86347229,9.6206214 1.86347229,8.63412444 C1.86347229,7.64761661 2.66593798,6.88387982 3.67726831,6.88387982 C4.69958499,6.88387982 5.49106433,7.64761661 5.49106433,8.63412444 C5.49106433,9.6206214 4.71058261,10.3949705 3.67726831,10.3949705 Z" id="Shape" fill="#FF6754" fill-rule="nonzero" transform="translate(3.6773, 8.6394) rotate(-15) translate(-3.6773, -8.6394)"></path>
                <polygon id="Rectangle" fill="#BE6250" points="13.4881857 5.18633205 14.908112 5.18633205 14.908112 19.9310575 13.4881857 19.9310575"></polygon>
                <path d="M14.398286,5.82499359 C16.0693811,5.82499359 17.4212793,4.51550306 17.4212793,2.90798532 C17.4212793,1.30949339 16.0693811,0 14.398286,0 C12.7271908,0 11.3752926,1.30949339 11.3752926,2.90798532 C11.3752926,4.51550306 12.7271908,5.82499359 14.398286,5.82499359 Z" id="Path-Copy" fill="#BE6250" fill-rule="nonzero"></path>
            </g>
        </g>
    </g>
</svg>