<?xml version="1.0" encoding="UTF-8"?>
<svg width="32px" height="32px" viewBox="0 0 32 32" version="1.1" xmlns="http://www.w3.org/2000/svg" xmlns:xlink="http://www.w3.org/1999/xlink">
    <title>git_dark</title>
    <g id="Page-1" stroke="none" stroke-width="1" fill="none" fill-rule="evenodd">
        <g id="git_dark" fill-rule="nonzero">
            <rect id="Rectangle" fill="#000000" opacity="0" x="0" y="0" width="32" height="32"></rect>
            <path d="M10.3928571,10.7857143 C12.2684111,10.7857143 13.7857143,9.26024848 13.7857143,7.38760159 C13.7857143,5.52546915 12.2684111,4 10.3928571,4 C8.51730318,4 7,5.52546915 7,7.38760159 C7,9.26024848 8.51730318,10.7857143 10.3928571,10.7857143 Z M10.3928571,9.42857143 C9.25779037,9.42857143 8.35714286,8.53064334 8.35714286,7.38671049 C8.35714286,6.24276504 9.25779037,5.35714286 10.3928571,5.35714286 C11.5402545,5.35714286 12.4285714,6.24276504 12.4285714,7.38671049 C12.4285714,8.53064334 11.5525976,9.42857143 10.3928571,9.42857143 Z M9.71428571,11.5835294 C9.71428571,13.8960363 11.1767154,15.5148256 13.9611902,16.2779139 L19.8459632,17.9197674 C21.7764614,18.4632237 22.7592017,19.4460625 22.7592017,20.8335928 L22.7592017,21.6428571 L24.6428571,21.6428571 L24.6428571,20.8335928 C24.6428571,18.5326061 23.1920483,16.9138406 20.4075975,16.1507522 L14.5227646,14.5088513 C12.604043,13.9769746 11.5978932,12.9710359 11.5978932,11.5835294 L11.5978932,10.7857143 L9.71428571,10.7857143 L9.71428571,11.5835294 Z M22.6124216,21.6428571 C20.7397463,21.6428571 19.2142857,23.1602046 19.2142857,25.0462342 C19.2142857,26.9113319 20.7397463,28.4285714 22.6124216,28.4285714 C24.4850969,28.4285714 26,26.9113319 26,25.0462342 C26,23.1602046 24.4850969,21.6428571 22.6124216,21.6428571 Z" id="Shape" fill="#956654"></path>
        </g>
    </g>
</svg>