<?xml version="1.0" encoding="UTF-8"?>
<svg width="32px" height="32px" viewBox="0 0 32 32" version="1.1" xmlns="http://www.w3.org/2000/svg" xmlns:xlink="http://www.w3.org/1999/xlink">
    <title>git_dark</title>
    <g id="Page-1" stroke="none" stroke-width="1" fill="none" fill-rule="evenodd">
        <g id="git_dark" transform="translate(16.000000, 16.000000) scale(1, -1) translate(-16.000000, -16.000000) ">
            <rect id="Rectangle" fill="#000000" fill-rule="nonzero" opacity="0" x="0" y="0" width="32" height="32"></rect>
            <g id="Group-8" transform="translate(16.000000, 16.001089) rotate(-180.000000) translate(-16.000000, -16.001089) translate(5.000000, 3.000000)">
                <path d="M16.8922265,18.0282324 C14.6186133,18.0282324 12.7665531,19.8112792 12.7665531,22.0275672 C12.7665531,24.219258 14.6186133,26.002178 16.8922265,26.002178 C19.1658396,26.002178 21.0050819,24.219258 21.0050819,22.0275672 C21.0050819,19.8112792 19.1658396,18.0282324 16.8922265,18.0282324 Z" id="Path" fill="#BE6250" fill-rule="nonzero"></path>
                <polygon id="Rectangle" fill="#78473E" transform="translate(11.992300, 11.540101) rotate(-60.000000) translate(-11.992300, -11.540101) " points="10.8654295 5.87945877 12.9608776 5.90931802 13.1191711 17.2007435 11.0237229 17.1708843"></polygon>
                <path d="M5.04504794,11.8144259 C7.3221561,11.8144259 9.16431234,10.0218391 9.16431234,7.82127726 C9.16431234,5.63307096 7.3221561,3.84048031 5.04504794,3.84048031 C2.76793979,3.84048031 0.925783547,5.63307096 0.925783547,7.82127726 C0.925783547,10.0218391 2.76793979,11.8144259 5.04504794,11.8144259 Z M5.04504794,10.2196368 C3.66696453,10.2196368 2.57348931,9.16447449 2.57348931,7.82023011 C2.57348931,6.47597093 3.66696453,5.43526942 5.04504794,5.43526942 C6.43810185,5.43526942 7.51660658,6.47597093 7.51660658,7.82023011 C7.51660658,9.16447449 6.45308769,10.2196368 5.04504794,10.2196368 Z" id="Shape" fill="#FF6754" fill-rule="nonzero" transform="translate(5.045048, 7.827453) rotate(-15.000000) translate(-5.045048, -7.827453) "></path>
                <polygon id="Rectangle" fill="#BE6250" points="16.2911225 3.2093115 18.4382884 3.2093115 18.4382884 20.8623643 16.2911225 20.8623643"></polygon>
                <path d="M17.8807356,7.97394556 C20.1578438,7.97394556 22,6.18135884 22,3.98079694 C22,1.79259065 20.1578438,0 17.8807356,0 C15.6036274,0 13.7614712,1.79259065 13.7614712,3.98079694 C13.7614712,6.18135884 15.6036274,7.97394556 17.8807356,7.97394556 Z" id="Path-Copy" fill="#BE6250" fill-rule="nonzero"></path>
            </g>
        </g>
    </g>
</svg>