<?xml version="1.0" encoding="UTF-8"?>
<svg width="32px" height="32px" viewBox="0 0 32 32" version="1.1" xmlns="http://www.w3.org/2000/svg" xmlns:xlink="http://www.w3.org/1999/xlink">
    <title>hash_dark</title>
    <g id="Page-1" stroke="none" stroke-width="1" fill="none" fill-rule="evenodd">
        <g id="hash_dark" fill-rule="nonzero">
            <rect id="Rectangle" fill="#000000" opacity="0" x="0" y="0" width="32" height="32"></rect>
            <path d="M10.58398,25.0234719 C11.05273,25.0234719 11.39453,24.7695719 11.49219,24.2909719 L14.96875,7.0644519 C14.98828,7.0058619 15.00781,6.8789059 15.00781,6.7519529 C15.00781,6.2734379 14.65625,6 14.1875,6 C13.64062,6 13.38672,6.3027339 13.29883,6.7617189 L9.82227,23.9687719 C9.80273,24.0663719 9.7832,24.1835719 9.7832,24.2812719 C9.7832,24.7597719 10.11523,25.0234719 10.58398,25.0234719 Z M16.93164,25.0234719 C17.4102,25.0234719 17.7422,24.7695719 17.8398,24.2909719 L21.3262,7.0644519 C21.3359,7.0058619 21.3555,6.8789059 21.3555,6.7519529 C21.3555,6.2734379 21.0039,6 20.5449,6 C19.9883,6 19.7441,6.3027339 19.6562,6.7617189 L16.16992,23.9687719 C16.15039,24.0663719 16.14062,24.1835719 16.14062,24.2812719 C16.14062,24.7597719 16.47266,25.0234719 16.93164,25.0234719 Z M9.05078,12.6992219 L23.6016,12.6992219 C24.1387,12.6992219 24.5098,12.3085919 24.5098,11.7812519 C24.5098,11.3515619 24.2168,11.0000019 23.7773,11.0000019 L9.22656,11.0000019 C8.69922,11.0000019 8.31836,11.4101519 8.31836,11.9472619 C8.31836,12.3867219 8.62109,12.6992219 9.05078,12.6992219 Z M7.732422,19.5546719 L22.2832,19.5546719 C22.8105,19.5546719 23.1914,19.1640719 23.1914,18.6366719 C23.1914,18.2070719 22.8887,17.8554719 22.459,17.8554719 L7.908203,17.8554719 C7.371094,17.8554719 7,18.2656719 7,18.8027719 C7,19.2421719 7.292969,19.5546719 7.732422,19.5546719 Z" id="Shape" fill-opacity="0.85" fill="#FFFFFF"></path>
        </g>
    </g>
</svg>