<?xml version="1.0" encoding="UTF-8"?>
<svg width="28px" height="23.0467481px" viewBox="0 0 28 23.0467481" version="1.1" xmlns="http://www.w3.org/2000/svg" xmlns:xlink="http://www.w3.org/1999/xlink">
    <title>image_dark</title>
    <g id="Page-1" stroke="none" stroke-width="1" fill="none" fill-rule="evenodd">
        <g id="image_dark" transform="translate(-2.000000, -4.000000)">
            <rect id="frame" x="0" y="0" width="32" height="32"></rect>
            <g id="Group-9" transform="translate(2.000000, 4.000000)" fill-rule="nonzero">
                <path d="M1.88970687,16.8294251 C2.29613762,19.0593782 3.6033007,19.9710438 5.87709923,19.57567 L7.23918721,19.3449697 L7.23918721,17.5544832 L5.60248599,17.8290515 C4.51501126,18.0267946 3.81199956,17.5544832 3.61427893,16.4340513 L1.84577145,6.41611213 C1.64805082,5.28471322 2.1423524,4.59267975 3.22982714,4.4059486 L17.8282643,1.83555786 C18.8938051,1.64881546 19.60784,2.1101711 19.8164939,3.24158126 L20.3876769,6.43809109 L22.1781633,6.43809109 L21.5300427,2.84613999 C21.134669,0.616271246 19.8164939,-0.306432169 17.5536961,0.089012023 L2.88929952,2.67038707 C0.626482585,3.07680656 -0.307204685,4.39495912 0.0882397323,6.62482224 L1.88970687,16.8294251 Z" id="Shape" fill="#505A75"></path>
                <path d="M9.58987836,22.4645419 L24.2982216,22.4645419 C26.2095136,22.4645419 27.2200507,21.4978727 27.2200507,19.57567 L27.2200507,18.8726583 L22.1342954,14.0613587 C21.7058519,13.6658725 21.1785369,13.4682418 20.6403111,13.4682418 C20.1020854,13.4682418 19.6187508,13.6439385 19.1574626,14.0503355 L14.7197153,17.9828142 L12.9621861,16.3900709 C12.5337427,16.0056079 12.0943885,15.8299112 11.6220771,15.8299112 C11.1936224,15.8299112 10.7872029,16.0056079 10.3588044,16.3681369 L6.65700354,19.5865807 C6.65700354,21.4978727 7.6785639,22.4645419 9.58987836,22.4645419 Z" id="Path" fill-opacity="0.85" fill="#7181A5"></path>
                <path d="M13.9287428,14.3030823 C15.2139607,14.3030823 16.257455,13.2375415 16.257455,11.9523236 C16.257455,10.6891072 15.2139607,9.62361143 13.9287428,9.62361143 C12.6436374,9.62361143 11.6110539,10.6891072 11.6110539,11.9523236 C11.6110539,13.2375415 12.6436374,14.3030823 13.9287428,14.3030823 Z" id="Path" fill="#788BB9"></path>
                <path d="M24.5618791,5.87787512 C26.8466109,5.87787512 28,7.02026351 28,9.28308382 L28,19.6414719 C28,21.9043822 26.8466109,23.0467481 24.5618791,23.0467481 L9.55693242,23.0467481 C7.25017669,23.0467481 6.10777706,21.9152929 6.10777706,19.6414719 L6.10777706,9.28308382 C6.10777706,7.02026351 7.25017669,5.87787512 9.55693242,5.87787512 Z M24.5289219,7.6463826 L9.57890013,7.6463826 C8.48044716,7.6463826 7.87629578,8.23955575 7.87629578,9.38194413 L7.87629578,19.5536235 C7.87629578,20.6959894 8.48044716,21.2781956 9.57890013,21.2781956 L24.5289219,21.2781956 C25.6163967,21.2781956 26.2314475,20.6959894 26.2314475,19.5536235 L26.2314475,9.38194413 C26.2314475,8.23955575 25.6163967,7.6463826 24.5289219,7.6463826 Z" id="Combined-Shape" fill-opacity="0.85" fill="#899FD3"></path>
            </g>
        </g>
    </g>
</svg>