<?xml version="1.0" encoding="UTF-8"?>
<svg width="32px" height="32px" viewBox="0 0 32 32" version="1.1" xmlns="http://www.w3.org/2000/svg" xmlns:xlink="http://www.w3.org/1999/xlink">
    <title>image_dark</title>
    <g id="Page-1" stroke="none" stroke-width="1" fill="none" fill-rule="evenodd">
        <g id="image_dark">
            <rect id="frame" fill="#D8D8D8" opacity="0" x="0" y="0" width="32" height="32"></rect>
            <path d="M18.6806138,3.09219102 C21.0242258,2.68262382 22.3894786,3.63828093 22.7989728,5.94778785 L23.169,8 L21.317,8 L21.0242258,6.35735202 C20.8189253,5.24412524 20.1412289,4.75721995 19.1277771,4.87713891 L18.9649881,4.9011135 L3.84517811,7.56330391 C2.71886499,7.75670403 2.20690977,8.47345298 2.41169186,9.64525899 L4.24336032,20.0209817 C4.35267223,20.6404242 4.61110305,21.0685967 4.99961859,21.3020439 L4.9999849,23.326841 C3.61039493,23.123427 2.77234643,22.1596015 2.4571964,20.430476 L0.591391151,9.86142303 C0.181823719,7.55192195 1.14885696,6.18669251 3.49248879,5.76575803 Z" id="Combined-Shape" fill="#505A75" fill-rule="nonzero"></path>
            <g id="Group-9" transform="translate(5.5, 8)" fill-rule="nonzero">
                <path d="M3.59771535,18 L22.4093174,18 C23.2929731,18 24.0093175,17.2836556 24.0093175,16.4 C24.0093175,16.3977493 24.0093127,16.3954987 24.0093032,16.393248 L23.9992348,14.0073768 L23.9992348,14.0073768 L18.5583309,8.65928982 C18.0999684,8.21967992 17.5358299,8 16.9600188,8 C16.3842076,8 15.8671208,8.19529882 15.3736199,8.64703676 L10.6259758,13.0182546 L8.74571472,11.247812 C8.2873522,10.8204551 7.81731701,10.6251563 7.31202317,10.6251563 C6.85364862,10.6251563 6.41884803,10.8204551 5.96053364,11.2234309 L2.0002285,14.8009502 L1.99771731,16.3974833 C1.99632741,17.2811379 2.71154419,17.9986081 3.59519871,17.999998 C3.59603759,17.9999993 3.59687647,18 3.59771535,18 Z" id="Path" fill-opacity="0.85" fill="#7181A5"></path>
                <path d="M9.92619792,8.81390662 C11.2573164,8.81390662 12.3380784,7.71031083 12.3380784,6.37919232 C12.3380784,5.07086104 11.2573164,3.96731184 9.92619792,3.96731184 C8.59519592,3.96731184 7.52573435,5.07086104 7.52573435,6.37919232 C7.52573435,7.71031083 8.59519592,8.81390662 9.92619792,8.81390662 Z" id="Path" fill="#A1B2DB"></path>
                <path d="M21.9167626,0 C24.6301932,0 26,1.33076689 26,3.96672362 L26,16.0331978 C26,18.6692593 24.6301932,20 21.9167626,20 L4.09634232,20 C1.35675534,20 0,18.6819692 0,16.0331978 L0,3.96672362 C0,1.33076689 1.35675534,0 4.09634232,0 Z M21.8942385,2.10526316 L4.10585516,2.10526316 C2.79885356,2.10526316 2.08,2.79232451 2.08,4.11553158 L2.08,15.8971973 C2.08,17.2203783 2.79885356,17.8947368 4.10585516,17.8947368 L21.8942385,17.8947368 C23.1881776,17.8947368 23.92,17.2203783 23.92,15.8971973 L23.92,4.11553158 C23.92,2.79232451 23.1881776,2.10526316 21.8942385,2.10526316 Z" id="Combined-Shape" fill-opacity="0.85" fill="#ABB8D7"></path>
            </g>
        </g>
    </g>
</svg>