<?xml version="1.0" encoding="UTF-8"?>
<svg width="32px" height="32px" viewBox="0 0 32 32" version="1.1" xmlns="http://www.w3.org/2000/svg" xmlns:xlink="http://www.w3.org/1999/xlink">
    <title>image_dark</title>
    <g id="Page-1" stroke="none" stroke-width="1" fill="none" fill-rule="evenodd">
        <g id="image_dark">
            <rect id="frame" x="0" y="0" width="32" height="32"></rect>
            <path d="M11.5531971,27.378615 L26.2052809,27.378615 C28.1092622,27.378615 29.115934,26.4156433 29.115934,24.5007931 L29.115934,23.8004704 L24.0496317,19.007574 C23.622827,18.6136005 23.097529,18.4167258 22.5613619,18.4167258 C22.0251949,18.4167258 21.5437091,18.5917504 21.0841853,18.996593 L16.6634124,22.9140299 L14.9126057,21.3273789 C14.4858011,20.9443864 14.0481274,20.7693618 13.5776226,20.7693618 C13.1508068,20.7693618 12.7459418,20.9443864 12.319182,21.3055288 L8.6315405,24.5116621 C8.6315405,26.4156433 9.64919339,27.378615 11.5531971,27.378615 Z M15.8754654,19.248373 C17.1557673,19.248373 18.1952702,18.1869079 18.1952702,16.906606 C18.1952702,15.6482214 17.1557673,14.5868011 15.8754654,14.5868011 C14.5952755,14.5868011 13.5666416,15.6482214 13.5666416,16.906606 C13.5666416,18.1869079 14.5952755,19.248373 15.8754654,19.248373 Z M3.88247874,21.7650525 C4.28735489,23.9864761 5.58951807,24.8946545 7.85461933,24.5007931 L9.21149732,24.2709752 L9.21149732,22.4873373 L7.58105648,22.7608554 C6.49774134,22.9578421 5.79741866,22.4873373 5.60045431,21.3711911 L3.83871138,11.3915705 C3.64174702,10.2644992 4.1341579,9.57511275 5.21747305,9.38909585 L19.7600712,6.82853685 C20.8215363,6.64250874 21.5328401,7.1020997 21.7406958,8.22918221 L22.309694,11.4134654 L24.0933318,11.4134654 L23.4476903,7.8352535 C23.0538289,5.61391401 21.7406958,4.69473993 19.4865532,5.08867155 L4.87824795,7.66017283 C2.62408629,8.06503778 1.69397037,9.3781484 2.08790222,11.5994823 L3.88247874,21.7650525 Z M11.5203771,27.9585943 L26.4679299,27.9585943 C28.7439226,27.9585943 29.8929,26.8205979 29.8929,24.5663433 L29.8929,14.247576 C29.8929,11.993411 28.7439226,10.8553923 26.4679299,10.8553923 L11.5203771,10.8553923 C9.22244476,10.8553923 8.08441481,11.993411 8.08441481,14.247576 L8.08441481,24.5663433 C8.08441481,26.8314669 9.22244476,27.9585943 11.5203771,27.9585943 Z M11.5422608,26.1968065 C10.4480094,26.1968065 9.84616895,25.6168273 9.84616895,24.4788309 L9.84616895,14.3460582 C9.84616895,13.2080394 10.4480094,12.6171352 11.5422608,12.6171352 L26.4350988,12.6171352 C27.5184139,12.6171352 28.1311122,13.2080394 28.1311122,14.3460582 L28.1311122,24.4788309 C28.1311122,25.6168273 27.5184139,26.1968065 26.4350988,26.1968065 L11.5422608,26.1968065 Z" id="Shape" fill-opacity="0.85" fill="#899FD3" fill-rule="nonzero"></path>
        </g>
    </g>
</svg>