<?xml version="1.0" encoding="UTF-8"?>
<svg width="32px" height="32px" viewBox="0 0 32 32" version="1.1" xmlns="http://www.w3.org/2000/svg" xmlns:xlink="http://www.w3.org/1999/xlink">
    <title>package_dark</title>
    <g id="Page-1" stroke="none" stroke-width="1" fill="none" fill-rule="evenodd" opacity="0.693033854">
        <g id="package_dark">
            <rect id="Rectangle" fill="#000000" fill-rule="nonzero" opacity="0" x="0" y="0" width="32" height="32"></rect>
            <g id="Group" transform="translate(3.000000, 3.000000)">
                <path d="M0.382382798,6.92014243 C0.404376294,6.1790409 0.830354052,5.61383278 1.66031607,5.22451807 C7.82361757,2.06772316 11.018246,0.446529246 11.2442012,0.360936337 C11.8203206,0.142699639 12.2926285,0.0223875264 12.661125,0 C13.2819052,0 13.8141875,0.120312112 14.257972,0.360936337 C14.539403,0.513530927 17.6212308,2.13472484 23.5034553,5.22451807 C24.4259538,5.72065859 24.887203,6.28586671 24.887203,6.92014243 L12.7572219,13.6680842 L0.382382798,6.92014243 Z" id="Rectangle" fill="#B18D6B"></path>
                <path d="M23.7020481,20.9485644 C19.5289574,23.237691 16.4526131,24.9413216 14.4730151,26.0594562 C14.2145037,26.205471 13.8949839,26.2984475 13.5144559,26.3383858 L13.5144559,14.7569959 L25.5144439,8.03524255 C25.5144439,10.2907719 25.5144439,13.610691 25.5144439,17.9949998 C25.5144439,18.8531462 25.5144439,19.9967894 23.7020481,20.9485644 Z" id="Path" fill="#8D6E4F" fill-rule="nonzero"></path>
                <path d="M10.3922306,20.9717956 C6.10345448,23.2454347 2.96926739,24.9413216 0.98966935,26.0594562 C0.731157925,26.205471 0.401268141,26.2984475 0,26.3383858 L0,14.7643118 L12.2046265,8.05847375 C12.2046265,10.3140031 12.2046265,13.6339222 12.2046265,18.018231 C12.2046265,18.8763774 12.2046265,20.0200206 10.3922306,20.9717956 Z" id="Path" fill="#685747" fill-rule="nonzero" transform="translate(6.102313, 17.198430) scale(-1, 1) translate(-6.102313, -17.198430) "></path>
            </g>
        </g>
    </g>
</svg>