<?xml version="1.0" encoding="UTF-8"?>
<svg width="32px" height="32px" viewBox="0 0 32 32" version="1.1" xmlns="http://www.w3.org/2000/svg" xmlns:xlink="http://www.w3.org/1999/xlink">
    <title>package_dark</title>
    <g id="Page-1" stroke="none" stroke-width="1" fill="none" fill-rule="evenodd" opacity="0.693033854">
        <g id="package_dark">
            <rect id="Rectangle" fill="#000000" fill-rule="nonzero" opacity="0" x="0" y="0" width="32" height="32"></rect>
            <g id="Group" transform="translate(3.000000, 3.000000)">
                <path d="M0.389659786,6.83123501 C0.412071832,6.09965488 0.846156218,5.54170834 1.69191294,5.1573954 C7.972506,2.04115782 11.2279302,0.440792404 11.4581855,0.356299161 C12.0452688,0.140866287 12.5265651,0.0220998998 12.9020743,0 C13.5346683,0 14.0770803,0.118766387 14.5293103,0.356299161 C14.8160971,0.506933272 17.956574,2.10729868 23.950741,5.1573954 C24.8907952,5.64716169 25.3608223,6.20510822 25.3608223,6.83123501 L13,13.4924817 L0.389659786,6.83123501 Z" id="Rectangle" fill="#DEB288"></path>
                <path d="M24.1531131,20.679425 C19.9006059,22.9391417 16.7657168,24.6208848 14.7484458,25.724654 C14.4850147,25.8687928 14.1594143,25.9605748 13.7716446,26 L13.7716446,14.5674035 L26,7.93200873 C26,10.1585599 26,13.4358259 26,17.7638067 C26,18.610928 26,19.7398781 24.1531131,20.679425 Z" id="Path" fill="#B58759" fill-rule="nonzero"></path>
                <path d="M10.5900014,20.7023577 C6.2196071,22.946786 3.02577443,24.6208848 1.00850339,25.724654 C0.745072326,25.8687928 0.40890453,25.9605748 0,26 L0,14.5746254 L12.4368883,7.95494147 C12.4368883,10.1814926 12.4368883,13.4587586 12.4368883,17.7867394 C12.4368883,18.6338607 12.4368883,19.7628108 10.5900014,20.7023577 Z" id="Path" fill="#826F5D" fill-rule="nonzero" transform="translate(6.218444, 16.977471) scale(-1, 1) translate(-6.218444, -16.977471) "></path>
            </g>
        </g>
    </g>
</svg>