<?xml version="1.0" encoding="UTF-8"?>
<svg width="32px" height="32px" viewBox="0 0 32 32" version="1.1" xmlns="http://www.w3.org/2000/svg" xmlns:xlink="http://www.w3.org/1999/xlink">
    <title>settings_dark</title>
    <g id="Page-1" stroke="none" stroke-width="1" fill="none" fill-rule="evenodd">
        <g id="settings_dark" transform="translate(0.000000, 0.000000)" fill-rule="nonzero">
            <rect id="Rectangle" fill="#000000" opacity="0" x="0" y="0" width="32" height="32"></rect>
            <path d="M16,27.054392 C16.3001701,27.054392 16.5887542,27.0313384 16.9005102,27.0082848 L17.5586617,28.2666582 C17.6971017,28.5321887 17.9395786,28.6592792 18.2629205,28.6246396 C18.5515046,28.5668282 18.747756,28.3475232 18.7939815,28.0473532 L18.9902329,26.6503033 C19.5675194,26.4886914 20.13322,26.2693864 20.6758669,26.0384955 L21.7149353,26.9736452 C21.9342403,27.1814825 22.2113568,27.2161221 22.4999409,27.0659779 C22.7540037,26.915952 22.8579224,26.6503033 22.8001109,26.3386655 L22.5115268,24.9647875 C22.9964806,24.6299779 23.4698484,24.2489428 23.8969908,23.8218005 L25.178536,24.3528615 C25.4671202,24.4798338 25.7442366,24.4105547 25.9635416,24.1566101 C26.159793,23.9371868 26.1713789,23.6486027 26.0097671,23.3830722 L25.2592828,22.1822737 C25.6056784,21.7090241 25.8827948,21.1778449 26.1483253,20.6237302 L27.5683106,20.6930093 C27.8685989,20.716063 28.1109575,20.5428652 28.2148762,20.265867 C28.3072089,19.9771646 28.2264621,19.7000482 27.9839852,19.5153827 L26.8756377,18.6379262 C27.0257819,18.0722256 27.1411682,17.4833532 27.1989796,16.8599594 L28.5266322,16.4328171 C28.8268022,16.3403661 29,16.1210611 29,15.8093051 C29,15.4976674 28.8268022,15.2782441 28.5266322,15.1743254 L27.1989796,14.7587099 C27.1411682,14.1352689 27.0257819,13.558006 26.8756377,12.9807432 L27.9839852,12.1032984 C28.2148762,11.9185739 28.3072089,11.6530315 28.2148762,11.3644001 C28.1109575,11.0873073 27.8685989,10.9141332 27.5683106,10.9372223 L26.1483253,10.9834005 C25.8827948,10.4292267 25.6056784,9.92123117 25.2592828,9.42478606 L26.0097671,8.22408218 C26.1713789,7.98162894 26.1483253,7.69299752 25.9635416,7.47363338 C25.7442366,7.21964151 25.4671202,7.16191286 25.178536,7.27737016 L23.8969908,7.79690436 C23.4698484,7.381277 22.9964806,6.98873874 22.5115268,6.6539173 L22.8001109,5.29157792 C22.8693901,4.96830695 22.7540037,4.70276462 22.4999409,4.56421822 C22.2113568,4.40259456 21.9342403,4.43722229 21.7149353,4.65658643 L20.6758669,5.58020935 C20.13322,5.33775612 19.5675194,5.14149289 18.9902329,4.96830695 L18.7939815,3.58287375 C18.747756,3.28269659 18.5399187,3.06333624 18.2513346,3.00560984 C17.9395786,2.97097395 17.685634,3.09797213 17.5586617,3.35196861 L16.9005102,4.61040824 C16.5887542,4.58731914 16.3001701,4.57576868 16,4.57576868 C15.688244,4.57576868 15.4111276,4.58731914 15.0994898,4.61040824 L14.4298351,3.35196861 C14.3028392,3.09797213 14.0488355,2.97097395 13.737115,3.00560984 C13.4484836,3.06333624 13.2406699,3.28269659 13.2060303,3.58287375 L12.9982166,4.96830695 C12.4209538,5.14149289 11.86678,5.32621748 11.3126063,5.58020935 L10.2735261,4.65658643 C10.0541738,4.43722229 9.77708097,4.41413319 9.48844954,4.56421822 C9.23445767,4.70276462 9.11900037,4.96830695 9.18827948,5.29157792 L9.4769109,6.6539173 C9.00354307,6.98873874 8.51864843,7.381277 8.09147061,7.79690436 L6.80994898,7.27737016 C6.52131756,7.16191286 6.25577523,7.21964151 6.03641109,7.47363338 C5.84013605,7.69299752 5.81704695,7.98162894 5.97868244,8.22408218 L6.72913124,9.42478606 C6.3943098,9.92123117 6.10567838,10.4292267 5.84013605,10.9834005 L4.43161848,10.9372223 C4.13143778,10.9141332 3.87744237,11.0873073 3.77353434,11.3644001 C3.68117205,11.6530315 3.77353434,11.9185739 4.00443948,12.1032984 L5.11278817,12.9807432 C4.96270314,13.558006 4.84724584,14.1352689 4.81260629,14.7471713 L3.46181146,15.1743254 C3.16163431,15.2782441 3,15.4976674 3,15.8093051 C3,16.1210611 3.16163431,16.3403661 3.46181146,16.4328171 L4.81260629,16.8599594 C4.84724584,17.4833532 4.96270314,18.0722256 5.11278817,18.6379262 L4.00443948,19.5153827 C3.77353434,19.6885805 3.69271778,19.9655787 3.77353434,20.265867 C3.87744237,20.5428652 4.13143778,20.716063 4.43161848,20.6930093 L5.84013605,20.6237302 C6.10567838,21.1778449 6.3943098,21.7090241 6.72913124,22.1822737 L5.97868244,23.3830722 C5.81704695,23.6486027 5.84013605,23.9371868 6.03641109,24.1566101 C6.25577523,24.4105547 6.52131756,24.4798338 6.80994898,24.3528615 L8.09147061,23.8218005 C8.51864843,24.2489428 9.00354307,24.6299779 9.4769109,24.9647875 L9.18827948,26.3386655 C9.13055083,26.6503033 9.23445767,26.915952 9.48844954,27.0659779 C9.77708097,27.2161221 10.0541738,27.1814825 10.2735261,26.9736452 L11.3126063,26.0384955 C11.86678,26.2693864 12.4209538,26.4886914 12.9982166,26.6503033 L13.2060303,28.0473532 C13.2406699,28.3475232 13.4484836,28.5668282 13.737115,28.6246396 C14.0488355,28.6592792 14.2912887,28.5321887 14.4298351,28.2666582 L15.0994898,27.0082848 C15.3996599,27.0313384 15.688244,27.054392 16,27.054392 Z M16,25.3110648 C10.7122543,25.3110648 6.6252244,21.0855121 6.6252244,15.820891 C6.6252244,10.544684 10.7122543,6.31910769 16,6.31910769 C21.2877929,6.31910769 25.3747874,10.544684 25.3747874,15.820891 C25.3747874,21.0855121 21.2877929,25.3110648 16,25.3110648 Z M13.9795682,13.9159047 L15.2611017,13.1077391 L11.3472458,6.41146407 L10.0195342,7.16191286 L13.9795682,13.9159047 Z M18.6784769,16.5482035 L26.471549,16.5482035 L26.4600813,15.0589391 L18.6784769,15.0589391 L18.6784769,16.5482035 Z M15.2726876,18.5455934 L14.0026573,17.7143624 L9.9040769,24.4221406 L11.2202381,25.1956785 L15.2726876,18.5455934 Z M15.9769464,18.8572312 C17.6394085,18.8572312 18.9902329,17.506525 18.9902329,15.832477 C18.9902329,14.158358 17.6394085,12.8075572 15.9769464,12.8075572 C14.3028392,12.8075572 12.9520384,14.158358 12.9520384,15.832477 C12.9520384,17.506525 14.3028392,18.8572312 15.9769464,18.8572312 Z M15.9769464,17.2294086 C15.1802366,17.2294086 14.5799202,16.6174826 14.5799202,15.832477 C14.5799202,15.0473532 15.1802366,14.4354389 15.9769464,14.4354389 C16.761952,14.4354389 17.3622921,15.0473532 17.3622921,15.832477 C17.3622921,16.6174826 16.761952,17.2294086 15.9769464,17.2294086 Z" id="Shape" fill-opacity="0.85" fill="#949494"></path>
        </g>
    </g>
</svg>