<?xml version="1.0" encoding="UTF-8"?>
<svg width="32px" height="32px" viewBox="0 0 32 32" version="1.1" xmlns="http://www.w3.org/2000/svg" xmlns:xlink="http://www.w3.org/1999/xlink">
    <title>settings_dark</title>
    <g id="Page-1" stroke="none" stroke-width="1" fill="none" fill-rule="evenodd">
        <g id="settings_dark" fill-rule="nonzero">
            <rect id="Rectangle" fill="#000000" opacity="0" x="0" y="0" width="32" height="32"></rect>
            <g id="Group-10" transform="translate(2.000000, 2.500000)">
                <polygon id="Path" stroke="#4A4B4C" stroke-width="2" fill="#4A4B4C" points="11.8241504 11.4992879 13.2042633 10.6479312 8.98934168 3.59378434 7.55949837 4.38433968"></polygon>
                <polygon id="Path" stroke="#4A4B4C" stroke-width="2" fill="#4A4B4C" points="16.8845136 14.2722657 25.2770528 14.2722657 25.2647029 12.7034099 16.8845136 12.7034099"></polygon>
                <polygon id="Path" stroke="#4A4B4C" stroke-width="2" fill="#4A4B4C" points="13.2167405 16.376403 11.8490156 15.5007481 7.43515974 22.5670128 8.85256409 23.3818912"></polygon>
                <path d="M14,25.3399408 C14.3232601,25.3399408 14.634043,25.3156551 14.9697802,25.2913694 L15.6785588,26.6169946 C15.827648,26.8967159 16.0887769,27.0305986 16.4369913,26.9941078 C16.7477742,26.9332067 16.9591219,26.7021813 17.0089032,26.3859691 L17.2202508,24.9142562 C17.841944,24.7440072 18.45116,24.5129818 19.035549,24.2697512 L20.1545457,25.2548786 C20.3907203,25.4738234 20.6891534,25.5103142 20.9999363,25.3521459 C21.2735424,25.1941021 21.3854548,24.9142562 21.3231964,24.5859634 L21.0124135,23.1386607 C21.5346714,22.7859577 22.0444521,22.3845588 22.5044516,21.9345885 L23.8845773,22.4940312 C24.1953602,22.6277893 24.4937933,22.5548077 24.7299679,22.2872915 C24.9413156,22.0561415 24.9537927,21.7521344 24.7797492,21.4724131 L23.9715354,20.2074398 C24.3445767,19.7088982 24.6430098,19.1493309 24.9289657,18.5656025 L26.4581806,18.6385841 C26.781568,18.6628698 27.0425696,18.4804157 27.154482,18.1886138 C27.2539173,17.8844822 27.1669592,17.5925557 26.9058302,17.3980211 L25.7122252,16.4736703 C25.8739189,15.8777367 25.9981812,15.257393 26.0604396,14.6006829 L27.4902193,14.1507126 C27.8134793,14.0533208 28,13.8222954 28,13.4938781 C28,13.1655853 27.8134793,12.9344353 27.4902193,12.8249629 L26.0604396,12.3871355 C25.9981812,11.7303756 25.8739189,11.1222619 25.7122252,10.5141481 L26.9058302,9.58980976 C27.154482,9.39521286 27.2539173,9.11547905 27.154482,8.81142217 C27.0425696,8.5195206 26.781568,8.33709146 26.4581806,8.36141452 L24.9289657,8.41006063 C24.6430098,7.82626994 24.3445767,7.29112536 23.9715354,6.76814854 L24.7797492,5.50327494 C24.9537927,5.24786418 24.9289657,4.94380731 24.7299679,4.71271961 C24.4937933,4.44515354 24.1953602,4.38433968 23.8845773,4.50596741 L22.5044516,5.05326729 C22.0444521,4.61542738 21.5346714,4.20191054 21.0124135,3.8491951 L21.3231964,2.41404766 C21.3978047,2.07349998 21.2735424,1.79376617 20.9999363,1.64781538 C20.6891534,1.47755399 20.3907203,1.51403235 20.1545457,1.74512006 L19.035549,2.71810454 C18.45116,2.46269377 17.841944,2.25594158 17.2202508,2.07349998 L17.0089032,0.614024509 C16.9591219,0.297804864 16.7352971,0.0667211439 16.4245141,0.00590964508 C16.0887769,-0.030577304 15.8152982,0.103208093 15.6785588,0.370779012 L14.9697802,1.69647395 C14.634043,1.67215089 14.3232601,1.65998314 14,1.65998314 C13.6642628,1.65998314 13.3658297,1.67215089 13.0302198,1.69647395 L12.3090532,0.370779012 C12.1722884,0.103208093 11.8987459,-0.030577304 11.5630469,0.00590964508 C11.2522131,0.0667211439 11.0284137,0.297804864 10.9911096,0.614024509 L10.7673102,2.07349998 C10.1456425,2.25594158 9.54884004,2.45053847 8.95203754,2.71810454 L7.83302807,1.74512006 C7.5968025,1.51403235 7.29839489,1.4897093 6.98756104,1.64781538 C6.71403134,1.79376617 6.58969271,2.07349998 6.66430098,2.41404766 L6.97513482,3.8491951 C6.46535408,4.20191054 5.94315985,4.61542738 5.4831222,5.05326729 L4.10302198,4.50596741 C3.79218814,4.38433968 3.50621948,4.44515354 3.26998118,4.71271961 C3.05860805,4.94380731 3.03374287,5.24786418 3.20781186,5.50327494 L4.01598749,6.76814854 C3.65541055,7.29112536 3.34457671,7.82626994 3.05860805,8.41006063 L1.54174298,8.36141452 C1.21847146,8.33709146 0.944937933,8.5195206 0.833036986,8.81142217 C0.733569902,9.11547905 0.833036986,9.39521286 1.08170406,9.58980976 L2.27531034,10.5141481 C2.1136803,11.1222619 1.98934168,11.7303756 1.95203754,12.3749802 L0.497335419,12.8249629 C0.174067715,12.9344353 0,13.1655853 0,13.4938781 C0,13.8222954 0.174067715,14.0533208 0.497335419,14.1507126 L1.95203754,14.6006829 C1.98934168,15.257393 2.1136803,15.8777367 2.27531034,16.4736703 L1.08170406,17.3980211 C0.833036986,17.5804752 0.746003765,17.8722771 0.833036986,18.1886138 C0.944937933,18.4804157 1.21847146,18.6628698 1.54174298,18.6385841 L3.05860805,18.5656025 C3.34457671,19.1493309 3.65541055,19.7088982 4.01598749,20.2074398 L3.20781186,21.4724131 C3.03374287,21.7521344 3.05860805,22.0561415 3.26998118,22.2872915 C3.50621948,22.5548077 3.79218814,22.6277893 4.10302198,22.4940312 L5.4831222,21.9345885 C5.94315985,22.3845588 6.46535408,22.7859577 6.97513482,23.1386607 L6.66430098,24.5859634 C6.60213166,24.9142562 6.71403134,25.1941021 6.98756104,25.3521459 C7.29839489,25.5103142 7.5968025,25.4738234 7.83302807,25.2548786 L8.95203754,24.2697512 C9.54884004,24.5129818 10.1456425,24.7440072 10.7673102,24.9142562 L10.9911096,26.3859691 C11.0284137,26.7021813 11.2522131,26.9332067 11.5630469,26.9941078 C11.8987459,27.0305986 12.1598494,26.8967159 12.3090532,26.6169946 L13.0302198,25.2913694 C13.3534799,25.3156551 13.6642628,25.3399408 14,25.3399408 Z M13.9999939,23.175755 C8.53315097,23.175755 4.30769231,18.9568717 4.30769231,13.70056 C4.30769231,8.43268058 8.53315097,4.21377364 13.9999939,4.21377364 C19.4668857,4.21377364 23.6923077,8.43268058 23.6923077,13.70056 C23.6923077,18.9568717 19.4668857,23.175755 13.9999939,23.175755 Z" id="Shape" fill="#C2C2C2"></path>
                <path d="M13.9484501,9.33059184 C16.3159745,9.33059184 18.2396933,11.2123357 18.2396933,13.5444808 C18.2396933,15.876527 16.3159745,17.7581391 13.9484501,17.7581391 C11.5643419,17.7581391 9.64065679,15.876527 9.64065679,13.5444808 C9.64065679,11.2123357 11.5643419,9.33059184 13.9484501,9.33059184 Z M13.975173,12.0465878 C13.1171779,12.0465878 12.4706832,12.6912048 12.4706832,13.5182883 C12.4706832,14.3452473 13.1171779,14.9898767 13.975173,14.9898767 C14.8205637,14.9898767 15.4670838,14.3452473 15.4670838,13.5182883 C15.4670838,12.6912048 14.8205637,12.0465878 13.975173,12.0465878 Z" id="Combined-Shape" fill="#858585"></path>
            </g>
        </g>
    </g>
</svg>