<?xml version="1.0" encoding="UTF-8"?>
<svg width="32px" height="32px" viewBox="0 0 32 32" version="1.1" xmlns="http://www.w3.org/2000/svg" xmlns:xlink="http://www.w3.org/1999/xlink">
    <title>settings_dark</title>
    <g id="Page-1" stroke="none" stroke-width="1" fill="none" fill-rule="evenodd">
        <g id="settings_dark" fill-rule="nonzero">
            <rect id="Rectangle" fill="#000000" opacity="0" x="0" y="0" width="32" height="32"></rect>
            <g id="Group-10" transform="translate(2.500000, 2.500000)">
                <polygon id="Path" stroke="#4A4B4C" stroke-width="2" fill="#4A4B4C" points="11.4018593 11.3357472 12.7326825 10.4964983 8.66829376 3.54267422 7.28951628 4.32198643"></polygon>
                <polygon id="Path" stroke="#4A4B4C" stroke-width="2" fill="#4A4B4C" points="16.2814953 14.0692882 24.3743009 14.0692882 24.3623921 12.5227444 16.2814953 12.5227444"></polygon>
                <polygon id="Path" stroke="#4A4B4C" stroke-width="2" fill="#4A4B4C" points="12.744714 16.1435009 11.4258364 15.2802994 7.16961832 22.2460691 8.53640109 23.0493584"></polygon>
                <path d="M13.5,24.9795609 C13.8117151,24.9795609 14.1113986,24.9556206 14.4351452,24.9316803 L15.1186102,26.2384527 C15.2623748,26.5141959 15.5141778,26.6461746 15.8499559,26.6102027 C16.1496394,26.5501678 16.3534389,26.322428 16.4014423,26.0107129 L16.6052419,24.5599303 C17.2047317,24.3921027 17.79219,24.1643628 18.3557079,23.9245914 L19.4347405,24.8957085 C19.6624803,25.1115395 19.9502551,25.1475114 20.2499386,24.9915925 C20.5137731,24.8357963 20.6216886,24.5599303 20.5616537,24.2363065 L20.2619702,22.809587 C20.765576,22.4619001 21.2571503,22.0662098 21.7007212,21.6226389 L23.0315566,22.1741254 C23.3312402,22.3059812 23.6190149,22.2340375 23.8467548,21.9703258 C24.0505543,21.7424632 24.0625858,21.4427797 23.8947581,21.1670365 L23.1154091,19.9200535 C23.4751275,19.428602 23.7629023,18.8769928 24.0386455,18.301566 L25.5132456,18.3735097 C25.8250834,18.39745 26.0767636,18.2175908 26.1846791,17.9299388 C26.2805631,17.6301325 26.1967107,17.3423577 25.9449077,17.1505898 L24.7939315,16.2393849 C24.9498504,15.6519266 25.0696747,15.0404052 25.1297096,14.3930348 L26.5084257,13.9494639 C26.8201408,13.8534571 27,13.6257173 27,13.3019707 C27,12.9783469 26.8201408,12.7504843 26.5084257,12.6425687 L25.1297096,12.210968 C25.0696747,11.5635484 24.9498504,10.9640832 24.7939315,10.3646179 L25.9449077,9.45342531 C26.1846791,9.26159593 26.2805631,8.98584044 26.1846791,8.6861078 C26.0767636,8.3983576 25.8250834,8.21852293 25.5132456,8.24250007 L24.0386455,8.29045434 C23.7629023,7.71496622 23.4751275,7.18743236 23.1154091,6.67189322 L23.8947581,5.42500841 C24.0625858,5.17323006 24.0386455,4.87349742 23.8467548,4.6456962 C23.6190149,4.38193542 23.3312402,4.32198643 23.0315566,4.4418844 L21.7007212,4.98140068 C21.2571503,4.54978765 20.765576,4.14215176 20.2619702,3.79445258 L20.5616537,2.37971554 C20.6335974,2.04401106 20.5137731,1.76825557 20.2499386,1.62438046 C19.9502551,1.4565405 19.6624803,1.49250007 19.4347405,1.72030129 L18.3557079,2.67944817 C17.79219,2.42766981 17.2047317,2.22385801 16.6052419,2.04401106 L16.4014423,0.605291969 C16.3534389,0.29356954 16.1376079,0.0657722485 15.8379244,0.00582559923 C15.5141778,-0.0301424394 15.2504661,0.101740287 15.1186102,0.365505863 L14.4351452,1.67234702 C14.1113986,1.64836988 13.8117151,1.63637517 13.5,1.63637517 C13.1762534,1.63637517 12.8884786,1.64836988 12.5648548,1.67234702 L11.8694442,0.365505863 C11.7375638,0.101740287 11.4737907,-0.0301424394 11.1500809,0.00582559923 C10.8503483,0.0657722485 10.6345418,0.29356954 10.5985699,0.605291969 L10.3827634,2.04401106 C9.78329817,2.22385801 9.20781004,2.41568738 8.63232191,2.67944817 L7.55327707,1.72030129 C7.32548813,1.49250007 7.03773793,1.46852293 6.73800529,1.62438046 C6.4742445,1.76825557 6.35434654,2.04401106 6.42629023,2.37971554 L6.72602286,3.79445258 C6.23444858,4.14215176 5.73090414,4.54978765 5.28729641,4.98140068 L3.95648548,4.4418844 C3.65675285,4.32198643 3.38099735,4.38193542 3.15319613,4.6456962 C2.94937205,4.87349742 2.92539491,5.17323006 3.09324715,5.42500841 L3.87255936,6.67189322 C3.52486018,7.18743236 3.22512755,7.71496622 2.94937205,8.29045434 L1.48668073,8.24250007 C1.17495462,8.21852293 0.911190149,8.3983576 0.803285665,8.6861078 C0.707370977,8.98584044 0.803285665,9.26159593 1.04307177,9.45342531 L2.19404925,10.3646179 C2.03819172,10.9640832 1.91829376,11.5635484 1.88232191,12.1989856 L0.47957344,12.6425687 C0.167851011,12.7504843 0,12.9783469 0,13.3019707 C0,13.6257173 0.167851011,13.8534571 0.47957344,13.9494639 L1.88232191,14.3930348 C1.91829376,15.0404052 2.03819172,15.6519266 2.19404925,16.2393849 L1.04307177,17.1505898 C0.803285665,17.330449 0.719360773,17.618101 0.803285665,17.9299388 C0.911190149,18.2175908 1.17495462,18.39745 1.48668073,18.3735097 L2.94937205,18.301566 C3.22512755,18.8769928 3.52486018,19.428602 3.87255936,19.9200535 L3.09324715,21.1670365 C2.92539491,21.4427797 2.94937205,21.7424632 3.15319613,21.9703258 C3.38099735,22.2340375 3.65675285,22.3059812 3.95648548,22.1741254 L5.28729641,21.6226389 C5.73090414,22.0662098 6.23444858,22.4619001 6.72602286,22.809587 L6.42629023,24.2363065 C6.36634125,24.5599303 6.4742445,24.8357963 6.73800529,24.9915925 C7.03773793,25.1475114 7.32548813,25.1115395 7.55327707,24.8957085 L8.63232191,23.9245914 C9.20781004,24.1643628 9.78329817,24.3921027 10.3827634,24.5599303 L10.5985699,26.0107129 C10.6345418,26.322428 10.8503483,26.5501678 11.1500809,26.6102027 C11.4737907,26.6461746 11.7255691,26.5141959 11.8694442,26.2384527 L12.5648548,24.9316803 C12.8765699,24.9556206 13.1762534,24.9795609 13.5,24.9795609 Z M13.4999941,22.8461538 C8.22839558,22.8461538 4.15384615,18.6872707 4.15384615,13.5057132 C4.15384615,8.31275261 8.22839558,4.15384615 13.4999941,4.15384615 C18.7716398,4.15384615 22.8461538,8.31275261 22.8461538,13.5057132 C22.8461538,18.6872707 18.7716398,22.8461538 13.4999941,22.8461538 Z" id="Shape" fill="#C2C2C2"></path>
                <path d="M13.4502912,9.19789394 C15.7332611,9.19789394 17.5882757,11.052876 17.5882757,13.3518537 C17.5882757,15.650734 15.7332611,17.5055862 13.4502912,17.5055862 C11.1513297,17.5055862 9.29634762,15.650734 9.29634762,13.3518537 C9.29634762,11.052876 11.1513297,9.19789394 13.4502912,9.19789394 Z M13.4760597,11.8752635 C12.6487073,11.8752635 12.0253017,12.5107129 12.0253017,13.3260338 C12.0253017,14.1412319 12.6487073,14.7766936 13.4760597,14.7766936 C14.2912578,14.7766936 14.9146879,14.1412319 14.9146879,13.3260338 C14.9146879,12.5107129 14.2912578,11.8752635 13.4760597,11.8752635 Z" id="Combined-Shape" fill="#737373"></path>
            </g>
        </g>
    </g>
</svg>