<?xml version="1.0" encoding="UTF-8"?>
<svg width="32px" height="32px" viewBox="0 0 32 32" version="1.1" xmlns="http://www.w3.org/2000/svg" xmlns:xlink="http://www.w3.org/1999/xlink">
    <title>terminal_dark</title>
    <g id="Page-1" stroke="none" stroke-width="1" fill="none" fill-rule="evenodd">
        <g id="terminal_dark" fill-rule="nonzero">
            <rect id="Rectangle" fill="#000000" opacity="0" x="0" y="0" width="32" height="32"></rect>
            <path d="M7.56393666,14.2044718 C6.73605867,14.7033158 7.43656831,15.966359 8.34936216,15.3932177 L11.4061374,13.4827359 C12.0111235,13.1006308 11.9792787,12.1984555 11.4061374,11.8375876 L8.34936216,9.92710576 C7.43656831,9.35396448 6.72544011,10.6063892 7.56393666,11.1158517 L10.1218571,12.6548579 L7.56393666,14.2044718 Z M12.0429575,15.3825992 C12.0429575,15.7540857 12.3401467,16.0618826 12.7222409,16.0618826 L16.7660856,16.0618826 C17.1482232,16.0618826 17.4453689,15.7540857 17.4453689,15.3825992 C17.4453689,15.000505 17.1482232,14.6927081 16.7660856,14.6927081 L12.7222409,14.6927081 C12.3401467,14.6927081 12.0429575,15.000505 12.0429575,15.3825992 Z M6.33273823,25.5399944 L24.6945726,25.5399944 C26.9234917,25.5399944 28.0273,24.4468372 28.0273,22.2603055 L28.0273,9.29027486 C28.0273,7.10383008 26.9234917,6 24.6945726,6 L6.33273823,6 C4.11444864,6 3,7.10383008 3,9.29027486 L3,22.2603055 C3,24.4468372 4.11444864,25.5399944 6.33273823,25.5399944 Z M6.35396448,23.8311348 C5.29258689,23.8311348 4.70882704,23.2686881 4.70882704,22.1647711 L4.70882704,9.38579841 C4.70882704,8.28196833 5.29258689,7.70882704 6.35396448,7.70882704 L24.673379,7.70882704 C25.7241489,7.70882704 26.318549,8.28196833 26.318549,9.38579841 L26.318549,22.1647711 C26.318549,23.2686881 25.7241489,23.8311348 24.673379,23.8311348 L6.35396448,23.8311348 Z" id="Shape" fill="#818182"></path>
        </g>
    </g>
</svg>